<svg width="27" height="17" viewBox="0 0 27 17" fill="none" xmlns="http://www.w3.org/2000/svg">
<path d="M1.0521 0.5001C0.914641 0.498226 0.778168 0.522707 0.65061 0.57212C0.523052 0.621533 0.406953 0.694893 0.309061 0.787936C0.211169 0.88098 0.133436 0.991851 0.0803791 1.11411C0.0273223 1.23636 0 1.36756 0 1.50009C0 1.63261 0.0273223 1.76381 0.0803791 1.88607C0.133436 2.00832 0.211169 2.1192 0.309061 2.21224C0.406953 2.30528 0.523052 2.37864 0.65061 2.42806C0.778168 2.47747 0.914641 2.50195 1.0521 2.50007H25.9479C26.0854 2.50195 26.2218 2.47747 26.3494 2.42806C26.4769 2.37864 26.5931 2.30528 26.6909 2.21224C26.7888 2.1192 26.8666 2.00832 26.9196 1.88607C26.9727 1.76381 27 1.63261 27 1.50009C27 1.36756 26.9727 1.23636 26.9196 1.11411C26.8666 0.991851 26.7888 0.88098 26.6909 0.787936C26.5931 0.694893 26.4769 0.621533 26.3494 0.57212C26.2218 0.522707 26.0854 0.498226 25.9479 0.5001H1.0521ZM1.0521 7.50001C0.914641 7.49814 0.778168 7.52262 0.65061 7.57203C0.523052 7.62145 0.406953 7.69481 0.309061 7.78785C0.211169 7.88089 0.133436 7.99176 0.0803791 8.11402C0.0273223 8.23627 0 8.36748 0 8.5C0 8.63252 0.0273223 8.76373 0.0803791 8.88598C0.133436 9.00824 0.211169 9.11911 0.309061 9.21215C0.406953 9.30519 0.523052 9.37855 0.65061 9.42797C0.778168 9.47738 0.914641 9.50186 1.0521 9.49999H25.9479C26.0854 9.50186 26.2218 9.47738 26.3494 9.42797C26.4769 9.37855 26.5931 9.30519 26.6909 9.21215C26.7888 9.11911 26.8666 9.00824 26.9196 8.88598C26.9727 8.76373 27 8.63252 27 8.5C27 8.36748 26.9727 8.23627 26.9196 8.11402C26.8666 7.99176 26.7888 7.88089 26.6909 7.78785C26.5931 7.69481 26.4769 7.62145 26.3494 7.57203C26.2218 7.52262 26.0854 7.49814 25.9479 7.50001H1.0521ZM1.0521 14.4999C0.914641 14.4981 0.778168 14.5225 0.65061 14.5719C0.523052 14.6214 0.406953 14.6947 0.309061 14.7878C0.211169 14.8808 0.133436 14.9917 0.0803791 15.1139C0.0273223 15.2362 0 15.3674 0 15.4999C0 15.6324 0.0273223 15.7636 0.0803791 15.8859C0.133436 16.0081 0.211169 16.119 0.309061 16.2121C0.406953 16.3051 0.523052 16.3785 0.65061 16.4279C0.778168 16.4773 0.914641 16.5018 1.0521 16.4999H25.9479C26.0854 16.5018 26.2218 16.4773 26.3494 16.4279C26.4769 16.3785 26.5931 16.3051 26.6909 16.2121C26.7888 16.119 26.8666 16.0081 26.9196 15.8859C26.9727 15.7636 27 15.6324 27 15.4999C27 15.3674 26.9727 15.2362 26.9196 15.1139C26.8666 14.9917 26.7888 14.8808 26.6909 14.7878C26.5931 14.6947 26.4769 14.6214 26.3494 14.5719C26.2218 14.5225 26.0854 14.4981 25.9479 14.4999H1.0521Z" fill="#FAF8EF"/>
</svg>
