<svg width="91" height="91" viewBox="0 0 91 91" fill="none" xmlns="http://www.w3.org/2000/svg">
<path d="M81.1216 18.3207C80.3422 18.3439 79.6025 18.6697 79.0591 19.2289L33.1802 65.1078L14.3013 46.2289C14.0248 45.941 13.6937 45.7111 13.3273 45.5528C12.961 45.3944 12.5667 45.3107 12.1675 45.3067C11.7684 45.3026 11.3725 45.3782 11.003 45.5291C10.6334 45.68 10.2977 45.9031 10.0155 46.1853C9.73325 46.4675 9.51017 46.8033 9.3593 47.1728C9.20843 47.5423 9.13281 47.9382 9.13687 48.3374C9.14093 48.7365 9.22459 49.1308 9.38295 49.4972C9.5413 49.8636 9.77117 50.1947 10.0591 50.4711L31.0591 71.4711C31.6217 72.0335 32.3847 72.3494 33.1802 72.3494C33.9757 72.3494 34.7386 72.0335 35.3013 71.4711L83.3013 23.4711C83.7348 23.0497 84.0309 22.5072 84.1508 21.9146C84.2706 21.3221 84.2087 20.7071 83.9731 20.1504C83.7375 19.5936 83.3391 19.121 82.8303 18.7945C82.3215 18.468 81.7259 18.3029 81.1216 18.3207Z" fill="black"/>
</svg>
