<svg width="500" height="500" viewBox="0 0 500 500" fill="none" xmlns="http://www.w3.org/2000/svg">
<path d="M398.332 311.249L404.999 324.791C408.332 331.457 416.873 337.707 423.957 338.957L432.915 340.416C460.207 344.999 466.457 364.999 447.082 384.582L438.748 392.916C433.123 398.541 430.207 409.374 431.873 417.291L432.915 422.291C440.415 455.207 422.915 467.916 394.373 450.624L388.332 446.874C381.04 442.499 368.957 442.499 361.665 446.874L355.623 450.624C326.873 467.916 309.582 455.207 317.082 422.291L318.124 417.291C319.79 409.582 316.873 398.541 311.248 392.916L302.915 384.582C283.54 364.791 289.79 344.999 317.082 340.416L326.04 338.957C333.332 337.707 341.665 331.457 344.998 324.791L351.665 311.249C364.582 285.207 385.415 285.207 398.332 311.249Z" fill="#1C1A15"/>
<path d="M337.292 41.6665H162.709C86.8753 41.6665 41.667 86.8748 41.667 162.708V337.291C41.667 413.125 86.8753 458.333 162.709 458.333H272.709C280 458.333 285.209 450.833 284.375 443.541C283.542 435.625 283.959 426.25 286.459 415.416C286.875 413.958 286.459 412.291 285.209 411.041L280.625 406.458C262.917 388.541 256.459 366.875 262.709 347.083C269.167 327.5 287.084 313.75 311.875 309.583L318.125 308.541L323.75 297.291C335.209 273.958 353.959 260.416 375 260.416C396.042 260.416 414.792 273.958 426.25 297.291L429.375 303.75C430.834 306.875 433.75 308.958 437.084 309.583C438.959 310 440.834 310.416 442.709 310.833C450 312.708 458.334 306.875 458.334 299.166V162.708C458.334 86.8748 413.125 41.6665 337.292 41.6665ZM338.75 186.666L290.625 248.75C284.584 256.458 276.042 261.458 266.25 262.5C256.667 263.75 246.875 261.041 239.375 255L201.25 225.416C199.792 224.166 198.125 224.167 197.292 224.375C196.459 224.375 195 224.791 193.75 226.458L144.167 290.833C141.042 294.791 136.459 296.875 131.667 296.875C128.334 296.875 125 295.833 122.084 293.541C115.209 288.333 113.959 278.541 119.167 271.666L168.75 207.291C174.792 199.583 183.334 194.583 193.125 193.333C202.917 192.083 212.5 194.792 220.209 200.833L258.334 230.833C259.792 232.083 261.25 231.875 262.292 231.875C263.125 231.875 264.584 231.458 265.834 229.791L313.959 167.708C319.167 160.833 328.959 159.583 335.834 165C342.917 170.208 343.959 180 338.75 186.666Z" fill="#1C1A15"/>
</svg>
