<svg width="500" height="500" viewBox="0 0 500 500" fill="none" xmlns="http://www.w3.org/2000/svg">
<path d="M449.164 223.751L420.831 190.834C415.414 184.584 411.039 172.918 411.039 164.584V129.168C411.039 107.084 392.914 88.9595 370.831 88.9595H335.414C327.289 88.9595 315.414 84.5845 309.164 79.1678L276.248 50.8345C261.873 38.5428 238.331 38.5428 223.748 50.8345L191.039 79.3761C184.789 84.5845 172.914 88.9595 164.789 88.9595H128.748C106.664 88.9595 88.5394 107.084 88.5394 129.168V164.793C88.5394 172.918 84.1644 184.584 78.9561 190.834L50.8311 223.959C38.7477 238.334 38.7477 261.668 50.8311 276.043L78.9561 309.168C84.1644 315.418 88.5394 327.084 88.5394 335.209V370.834C88.5394 392.918 106.664 411.043 128.748 411.043H164.789C172.914 411.043 184.789 415.418 191.039 420.835L223.956 449.168C238.331 461.459 261.873 461.459 276.456 449.168L309.373 420.835C315.623 415.418 327.289 411.043 335.623 411.043H371.039C393.123 411.043 411.248 392.918 411.248 370.834V335.418C411.248 327.293 415.623 315.418 421.039 309.168L449.373 276.251C461.456 261.876 461.456 238.126 449.164 223.751ZM347.498 250.001L323.123 324.168C319.998 336.459 306.873 346.459 293.539 346.459H254.998C248.331 346.459 238.956 344.168 234.789 340.001L204.164 316.043C203.539 329.376 197.498 335.001 182.706 335.001H172.706C157.289 335.001 151.039 328.959 151.039 314.376V214.793C151.039 200.209 157.289 194.168 172.706 194.168H182.914C198.331 194.168 204.581 200.209 204.581 214.793V222.293L244.998 162.293C249.164 155.834 259.789 151.251 268.748 154.793C278.539 158.126 284.789 168.959 282.706 178.543L277.706 211.043C277.289 213.959 277.914 216.668 279.789 218.751C281.456 220.626 283.956 221.876 286.664 221.876H327.289C335.206 221.876 341.873 225.001 345.831 230.626C349.373 236.043 349.998 242.918 347.498 250.001Z" fill="#1C1A15"/>
</svg>
