<svg width="500" height="500" viewBox="0 0 500 500" fill="none" xmlns="http://www.w3.org/2000/svg">
<path d="M442.713 384.794L408.338 392.919C400.63 394.794 394.588 400.627 392.922 408.336L385.63 438.961C381.672 455.627 360.422 460.836 349.38 447.711L287.088 376.044C282.088 370.211 284.797 361.044 292.297 359.169C329.172 350.211 362.297 329.586 386.672 300.211C390.63 295.419 397.713 294.794 402.088 299.169L448.338 345.419C464.172 361.252 458.547 381.044 442.713 384.794Z" fill="#1C1A15"/>
<path d="M56.2539 384.794L90.6289 392.919C98.3372 394.794 104.379 400.627 106.046 408.336L113.337 438.961C117.296 455.627 138.546 460.836 149.587 447.711L211.879 376.044C216.879 370.211 214.171 361.044 206.671 359.169C169.796 350.211 136.671 329.586 112.296 300.211C108.337 295.419 101.254 294.794 96.8789 299.169L50.6289 345.419C34.7955 361.252 40.4205 381.044 56.2539 384.794Z" fill="#1C1A15"/>
<path d="M250 41.6665C169.375 41.6665 104.167 106.875 104.167 187.5C104.167 217.708 113.125 245.416 128.542 268.541C151.042 301.875 186.667 325.416 228.125 331.458C235.209 332.708 242.5 333.333 250 333.333C257.5 333.333 264.792 332.708 271.875 331.458C313.334 325.416 348.959 301.875 371.459 268.541C386.875 245.416 395.834 217.708 395.834 187.5C395.834 106.875 330.625 41.6665 250 41.6665ZM313.75 182.916L296.459 200.208C293.542 203.125 291.875 208.75 292.917 212.916L297.917 234.375C301.875 251.25 292.917 257.916 277.917 248.958L257.084 236.666C253.334 234.375 247.084 234.375 243.334 236.666L222.5 248.958C207.5 257.708 198.542 251.25 202.5 234.375L207.5 212.916C208.334 208.958 206.875 203.125 203.959 200.208L186.25 182.916C176.042 172.708 179.375 162.5 193.542 160.208L215.834 156.458C219.584 155.833 223.959 152.5 225.625 149.166L237.917 124.583C244.584 111.25 255.417 111.25 262.084 124.583L274.375 149.166C276.042 152.5 280.417 155.833 284.375 156.458L306.667 160.208C320.625 162.5 323.959 172.708 313.75 182.916Z" fill="#1C1A15"/>
</svg>
