<svg width="500" height="500" viewBox="0 0 500 500" fill="none" xmlns="http://www.w3.org/2000/svg">
<path d="M286.04 73.1177L322.707 146.451C327.707 156.659 341.04 166.451 352.29 168.326L418.749 179.368C461.249 186.451 471.249 217.284 440.624 247.701L388.957 299.368C380.207 308.118 375.415 324.993 378.124 337.076L392.915 401.034C404.582 451.659 377.707 471.243 332.915 444.784L270.624 407.909C259.374 401.243 240.832 401.243 229.374 407.909L167.082 444.784C122.499 471.243 95.4153 451.451 107.082 401.034L121.874 337.076C124.582 324.993 119.79 308.118 111.04 299.368L59.3736 247.701C28.9569 217.284 38.7486 186.451 81.2486 179.368L147.707 168.326C158.749 166.451 172.082 156.659 177.082 146.451L213.749 73.1177C233.749 33.326 266.249 33.326 286.04 73.1177Z" fill="#1C1A15"/>
</svg>
