<svg width="16" height="16" viewBox="0 0 16 16" fill="none" xmlns="http://www.w3.org/2000/svg">
<path d="M1.60001 3.73333C1.52934 3.73233 1.45917 3.74539 1.39359 3.77174C1.32801 3.79809 1.26831 3.83722 1.21798 3.88684C1.16765 3.93647 1.12769 3.9956 1.10041 4.0608C1.07313 4.12601 1.05908 4.19598 1.05908 4.26666C1.05908 4.33734 1.07313 4.40732 1.10041 4.47252C1.12769 4.53773 1.16765 4.59686 1.21798 4.64648C1.26831 4.69611 1.32801 4.73523 1.39359 4.76159C1.45917 4.78794 1.52934 4.801 1.60001 4.8H14.4C14.4707 4.801 14.5409 4.78794 14.6064 4.76159C14.672 4.73523 14.7317 4.69611 14.782 4.64648C14.8324 4.59686 14.8723 4.53773 14.8996 4.47252C14.9269 4.40732 14.9409 4.33734 14.9409 4.26666C14.9409 4.19598 14.9269 4.12601 14.8996 4.0608C14.8723 3.9956 14.8324 3.93647 14.782 3.88684C14.7317 3.83722 14.672 3.79809 14.6064 3.77174C14.5409 3.74539 14.4707 3.73233 14.4 3.73333H1.60001ZM1.60001 7.46666C1.52934 7.46566 1.45917 7.47872 1.39359 7.50507C1.32801 7.53143 1.26831 7.57055 1.21798 7.62018C1.16765 7.6698 1.12769 7.72893 1.10041 7.79414C1.07313 7.85934 1.05908 7.92932 1.05908 8C1.05908 8.07068 1.07313 8.14065 1.10041 8.20586C1.12769 8.27106 1.16765 8.33019 1.21798 8.37982C1.26831 8.42944 1.32801 8.46857 1.39359 8.49492C1.45917 8.52127 1.52934 8.53433 1.60001 8.53333H14.4C14.4707 8.53433 14.5409 8.52127 14.6064 8.49492C14.672 8.46857 14.7317 8.42944 14.782 8.37982C14.8324 8.33019 14.8723 8.27106 14.8996 8.20586C14.9269 8.14065 14.9409 8.07068 14.9409 8C14.9409 7.92932 14.9269 7.85934 14.8996 7.79414C14.8723 7.72893 14.8324 7.6698 14.782 7.62018C14.7317 7.57055 14.672 7.53143 14.6064 7.50507C14.5409 7.47872 14.4707 7.46566 14.4 7.46666H1.60001ZM1.60001 11.2C1.52934 11.199 1.45917 11.2121 1.39359 11.2384C1.32801 11.2648 1.26831 11.3039 1.21798 11.3535C1.16765 11.4031 1.12769 11.4623 1.10041 11.5275C1.07313 11.5927 1.05908 11.6627 1.05908 11.7333C1.05908 11.804 1.07313 11.874 1.10041 11.9392C1.12769 12.0044 1.16765 12.0635 1.21798 12.1131C1.26831 12.1628 1.32801 12.2019 1.39359 12.2283C1.45917 12.2546 1.52934 12.2677 1.60001 12.2667H14.4C14.4707 12.2677 14.5409 12.2546 14.6064 12.2283C14.672 12.2019 14.7317 12.1628 14.782 12.1131C14.8324 12.0635 14.8723 12.0044 14.8996 11.9392C14.9269 11.874 14.9409 11.804 14.9409 11.7333C14.9409 11.6627 14.9269 11.5927 14.8996 11.5275C14.8723 11.4623 14.8324 11.4031 14.782 11.3535C14.7317 11.3039 14.672 11.2648 14.6064 11.2384C14.5409 11.2121 14.4707 11.199 14.4 11.2H1.60001Z" fill="#FAF8EF"/>
</svg>
