<svg width="81" height="13" viewBox="0 0 81 13" fill="none" xmlns="http://www.w3.org/2000/svg">
<path d="M0.544 0.672C0.810667 0.682666 1.168 0.693333 1.616 0.704C2.07467 0.714666 2.528 0.719999 2.976 0.719999C3.488 0.719999 3.984 0.714666 4.464 0.704C4.944 0.693333 5.28533 0.688 5.488 0.688C6.97067 0.688 8.08 0.981333 8.816 1.568C9.552 2.15467 9.92 2.912 9.92 3.84C9.92 4.224 9.84533 4.62933 9.696 5.056C9.54667 5.472 9.29067 5.86133 8.928 6.224C8.576 6.576 8.09067 6.864 7.472 7.088C6.85333 7.312 6.07467 7.424 5.136 7.424H3.504V7.104H4.976C5.60533 7.104 6.08 6.96 6.4 6.672C6.73067 6.384 6.95467 6.00533 7.072 5.536C7.2 5.06667 7.264 4.56 7.264 4.016C7.264 3.00267 7.11467 2.24533 6.816 1.744C6.51733 1.24267 6.00533 0.992 5.28 0.992C4.864 0.992 4.592 1.08267 4.464 1.264C4.34667 1.44533 4.288 1.81333 4.288 2.368V10.208C4.288 10.624 4.33067 10.9333 4.416 11.136C4.50133 11.3387 4.66667 11.472 4.912 11.536C5.15733 11.6 5.52 11.6373 6 11.648V12C5.66933 11.9893 5.24267 11.9787 4.72 11.968C4.19733 11.9573 3.648 11.952 3.072 11.952C2.61333 11.952 2.16533 11.9573 1.728 11.968C1.29067 11.9787 0.896 11.9893 0.544 12V11.68C0.885333 11.6587 1.14133 11.616 1.312 11.552C1.48267 11.488 1.59467 11.36 1.648 11.168C1.712 10.976 1.744 10.688 1.744 10.304V2.368C1.744 1.97333 1.712 1.68533 1.648 1.504C1.59467 1.312 1.47733 1.184 1.296 1.12C1.12533 1.04533 0.874667 1.00267 0.544 0.992V0.672ZM19.2759 0.672C19.2332 1.14133 19.2012 1.59467 19.1799 2.032C19.1692 2.46933 19.1639 2.80533 19.1639 3.04C19.1639 3.25333 19.1692 3.456 19.1799 3.648C19.1905 3.84 19.2012 4 19.2119 4.128H18.8439C18.7372 3.34933 18.5719 2.736 18.3479 2.288C18.1239 1.82933 17.8305 1.50933 17.4679 1.328C17.1159 1.136 16.6999 1.04 16.2199 1.04H15.5639C15.2545 1.04 15.0199 1.06667 14.8599 1.12C14.6999 1.17333 14.5932 1.28 14.5399 1.44C14.4865 1.6 14.4599 1.84533 14.4599 2.176V10.496C14.4599 10.8267 14.4865 11.072 14.5399 11.232C14.5932 11.392 14.6999 11.4987 14.8599 11.552C15.0199 11.6053 15.2545 11.632 15.5639 11.632H16.3479C16.8279 11.632 17.2492 11.5307 17.6119 11.328C17.9852 11.1147 18.2999 10.7573 18.5559 10.256C18.8225 9.75467 19.0252 9.07733 19.1639 8.224H19.5319C19.4999 8.56533 19.4839 9.01333 19.4839 9.568C19.4839 9.81333 19.4892 10.16 19.4999 10.608C19.5105 11.056 19.5425 11.52 19.5959 12C19.0519 11.9787 18.4385 11.968 17.7559 11.968C17.0732 11.9573 16.4652 11.952 15.9319 11.952C15.6652 11.952 15.3239 11.952 14.9079 11.952C14.4919 11.952 14.0439 11.9573 13.5639 11.968C13.0839 11.968 12.5985 11.9733 12.1079 11.984C11.6172 11.984 11.1532 11.9893 10.7159 12V11.68C11.0572 11.6587 11.3132 11.616 11.4839 11.552C11.6545 11.488 11.7665 11.36 11.8199 11.168C11.8839 10.976 11.9159 10.688 11.9159 10.304V2.368C11.9159 1.97333 11.8839 1.68533 11.8199 1.504C11.7665 1.312 11.6492 1.184 11.4679 1.12C11.2972 1.04533 11.0465 1.00267 10.7159 0.992V0.672C11.1532 0.682666 11.6172 0.693333 12.1079 0.704C12.5985 0.704 13.0839 0.709333 13.5639 0.719999C14.0439 0.719999 14.4919 0.719999 14.9079 0.719999C15.3239 0.719999 15.6652 0.719999 15.9319 0.719999C16.4225 0.719999 16.9772 0.719999 17.5959 0.719999C18.2252 0.709333 18.7852 0.693333 19.2759 0.672ZM16.7799 6.144C16.7799 6.144 16.7799 6.19733 16.7799 6.304C16.7799 6.41067 16.7799 6.464 16.7799 6.464H13.9799C13.9799 6.464 13.9799 6.41067 13.9799 6.304C13.9799 6.19733 13.9799 6.144 13.9799 6.144H16.7799ZM17.2439 4.032C17.2012 4.64 17.1799 5.104 17.1799 5.424C17.1905 5.744 17.1959 6.03733 17.1959 6.304C17.1959 6.57067 17.2012 6.864 17.2119 7.184C17.2225 7.504 17.2492 7.968 17.2919 8.576H16.9239C16.8705 8.20267 16.7692 7.856 16.6199 7.536C16.4812 7.216 16.2785 6.96 16.0119 6.768C15.7452 6.56533 15.3985 6.464 14.9719 6.464V6.144C15.2919 6.144 15.5639 6.08 15.7879 5.952C16.0119 5.81333 16.1932 5.63733 16.3319 5.424C16.4812 5.2 16.5985 4.96533 16.6839 4.72C16.7692 4.47467 16.8332 4.24533 16.8759 4.032H17.2439ZM24.8565 0.464C25.4858 0.464 25.9712 0.533333 26.3125 0.672C26.6538 0.8 26.9472 0.938666 27.1925 1.088C27.3205 1.16267 27.4218 1.22133 27.4965 1.264C27.5818 1.296 27.6618 1.312 27.7365 1.312C27.8432 1.312 27.9178 1.25333 27.9605 1.136C28.0138 1.01867 28.0565 0.842666 28.0885 0.608H28.4565C28.4458 0.810666 28.4298 1.056 28.4085 1.344C28.3978 1.62133 28.3872 1.98933 28.3765 2.448C28.3765 2.90667 28.3765 3.50933 28.3765 4.256H28.0085C27.9658 3.70133 27.8378 3.16267 27.6245 2.64C27.4112 2.11733 27.1072 1.69067 26.7125 1.36C26.3285 1.01867 25.8538 0.848 25.2885 0.848C24.7765 0.848 24.3552 0.992 24.0245 1.28C23.6938 1.568 23.5285 1.968 23.5285 2.48C23.5285 2.90667 23.6352 3.27467 23.8485 3.584C24.0618 3.88267 24.3712 4.176 24.7765 4.464C25.1925 4.752 25.6938 5.09867 26.2805 5.504C26.7925 5.83467 27.2512 6.16533 27.6565 6.496C28.0618 6.82667 28.3872 7.2 28.6325 7.616C28.8778 8.032 29.0005 8.528 29.0005 9.104C29.0005 9.808 28.8138 10.3893 28.4405 10.848C28.0778 11.3067 27.5978 11.6533 27.0005 11.888C26.4032 12.112 25.7472 12.224 25.0325 12.224C24.3712 12.224 23.8432 12.16 23.4485 12.032C23.0538 11.904 22.7232 11.7707 22.4565 11.632C22.2218 11.4827 22.0405 11.408 21.9125 11.408C21.8058 11.408 21.7258 11.4667 21.6725 11.584C21.6298 11.7013 21.5925 11.8773 21.5605 12.112H21.1925C21.2138 11.856 21.2245 11.5573 21.2245 11.216C21.2352 10.8747 21.2405 10.432 21.2405 9.888C21.2512 9.33333 21.2565 8.63467 21.2565 7.792H21.6245C21.6672 8.496 21.7845 9.15733 21.9765 9.776C22.1792 10.384 22.4832 10.8747 22.8885 11.248C23.3045 11.6213 23.8538 11.808 24.5365 11.808C24.9098 11.808 25.2405 11.744 25.5285 11.616C25.8272 11.4773 26.0672 11.2747 26.2485 11.008C26.4298 10.7413 26.5205 10.4107 26.5205 10.016C26.5205 9.568 26.4138 9.17867 26.2005 8.848C25.9978 8.51733 25.7152 8.208 25.3525 7.92C25.0005 7.632 24.5898 7.33867 24.1205 7.04C23.6192 6.70933 23.1498 6.37867 22.7125 6.048C22.2752 5.71733 21.9232 5.33867 21.6565 4.912C21.4005 4.48533 21.2725 3.97867 21.2725 3.392C21.2725 2.72 21.4378 2.17067 21.7685 1.744C22.1098 1.30667 22.5525 0.986666 23.0965 0.783999C23.6512 0.570666 24.2378 0.464 24.8565 0.464ZM34.2003 0.464C34.8296 0.464 35.3149 0.533333 35.6563 0.672C35.9976 0.8 36.2909 0.938666 36.5363 1.088C36.6643 1.16267 36.7656 1.22133 36.8403 1.264C36.9256 1.296 37.0056 1.312 37.0803 1.312C37.1869 1.312 37.2616 1.25333 37.3043 1.136C37.3576 1.01867 37.4003 0.842666 37.4323 0.608H37.8003C37.7896 0.810666 37.7736 1.056 37.7523 1.344C37.7416 1.62133 37.7309 1.98933 37.7203 2.448C37.7203 2.90667 37.7203 3.50933 37.7203 4.256H37.3523C37.3096 3.70133 37.1816 3.16267 36.9683 2.64C36.7549 2.11733 36.4509 1.69067 36.0563 1.36C35.6723 1.01867 35.1976 0.848 34.6323 0.848C34.1203 0.848 33.6989 0.992 33.3683 1.28C33.0376 1.568 32.8723 1.968 32.8723 2.48C32.8723 2.90667 32.9789 3.27467 33.1923 3.584C33.4056 3.88267 33.7149 4.176 34.1203 4.464C34.5363 4.752 35.0376 5.09867 35.6243 5.504C36.1363 5.83467 36.5949 6.16533 37.0003 6.496C37.4056 6.82667 37.7309 7.2 37.9763 7.616C38.2216 8.032 38.3443 8.528 38.3443 9.104C38.3443 9.808 38.1576 10.3893 37.7843 10.848C37.4216 11.3067 36.9416 11.6533 36.3443 11.888C35.7469 12.112 35.0909 12.224 34.3763 12.224C33.7149 12.224 33.1869 12.16 32.7923 12.032C32.3976 11.904 32.0669 11.7707 31.8003 11.632C31.5656 11.4827 31.3843 11.408 31.2563 11.408C31.1496 11.408 31.0696 11.4667 31.0163 11.584C30.9736 11.7013 30.9363 11.8773 30.9043 12.112H30.5363C30.5576 11.856 30.5683 11.5573 30.5683 11.216C30.5789 10.8747 30.5843 10.432 30.5843 9.888C30.5949 9.33333 30.6003 8.63467 30.6003 7.792H30.9683C31.0109 8.496 31.1283 9.15733 31.3203 9.776C31.5229 10.384 31.8269 10.8747 32.2323 11.248C32.6483 11.6213 33.1976 11.808 33.8802 11.808C34.2536 11.808 34.5843 11.744 34.8723 11.616C35.1709 11.4773 35.4109 11.2747 35.5923 11.008C35.7736 10.7413 35.8643 10.4107 35.8643 10.016C35.8643 9.568 35.7576 9.17867 35.5443 8.848C35.3416 8.51733 35.0589 8.208 34.6963 7.92C34.3443 7.632 33.9336 7.33867 33.4643 7.04C32.9629 6.70933 32.4936 6.37867 32.0563 6.048C31.6189 5.71733 31.2669 5.33867 31.0003 4.912C30.7443 4.48533 30.6163 3.97867 30.6163 3.392C30.6163 2.72 30.7816 2.17067 31.1123 1.744C31.4536 1.30667 31.8963 0.986666 32.4403 0.783999C32.9949 0.570666 33.5816 0.464 34.2003 0.464ZM45.352 0.447999C46.4827 0.447999 47.4693 0.677333 48.312 1.136C49.1653 1.59467 49.8267 2.256 50.296 3.12C50.7653 3.97333 51 5.01333 51 6.24C51 7.43467 50.76 8.48 50.28 9.376C49.8 10.272 49.128 10.9707 48.264 11.472C47.4107 11.9733 46.4347 12.224 45.336 12.224C44.2053 12.224 43.2133 11.9947 42.36 11.536C41.5173 11.0773 40.8613 10.416 40.392 9.552C39.9227 8.688 39.688 7.648 39.688 6.432C39.688 5.23733 39.928 4.192 40.408 3.296C40.8987 2.4 41.5653 1.70133 42.408 1.2C43.2613 0.698666 44.2427 0.447999 45.352 0.447999ZM45.288 0.735999C44.6907 0.735999 44.168 0.975999 43.72 1.456C43.2827 1.936 42.9413 2.59733 42.696 3.44C42.4613 4.28267 42.344 5.25867 42.344 6.368C42.344 7.49867 42.4773 8.48533 42.744 9.328C43.0213 10.16 43.3893 10.8053 43.848 11.264C44.3173 11.712 44.8347 11.936 45.4 11.936C45.9973 11.936 46.5147 11.696 46.952 11.216C47.4 10.736 47.7413 10.0747 47.976 9.232C48.2213 8.37867 48.344 7.40267 48.344 6.304C48.344 5.16267 48.2053 4.176 47.928 3.344C47.6613 2.512 47.2933 1.872 46.824 1.424C46.3653 0.965333 45.8533 0.735999 45.288 0.735999ZM57.1849 0.639999L61.0729 10.656C61.2222 11.04 61.3875 11.3067 61.5689 11.456C61.7609 11.5947 61.9315 11.6693 62.0809 11.68V12C61.7609 11.9787 61.3822 11.968 60.9449 11.968C60.5182 11.9573 60.0862 11.952 59.6489 11.952C59.1582 11.952 58.6942 11.9573 58.2569 11.968C57.8195 11.968 57.4729 11.9787 57.2169 12V11.68C57.7609 11.6587 58.1022 11.568 58.2409 11.408C58.3902 11.2373 58.3582 10.88 58.1449 10.336L55.4249 2.896L55.7129 2.48L53.2809 8.816C53.0462 9.40267 52.9022 9.88267 52.8489 10.256C52.8062 10.6293 52.8329 10.9173 52.9289 11.12C53.0355 11.3227 53.2009 11.4667 53.4249 11.552C53.6595 11.6267 53.9369 11.6693 54.2569 11.68V12C53.9049 11.9787 53.5689 11.968 53.2489 11.968C52.9289 11.9573 52.6035 11.952 52.2729 11.952C52.0382 11.952 51.8142 11.9573 51.6009 11.968C51.3982 11.968 51.2169 11.9787 51.0569 12V11.68C51.2809 11.6373 51.5102 11.4933 51.7449 11.248C51.9795 11.0027 52.2089 10.5867 52.4329 10L56.0809 0.639999C56.2515 0.650666 56.4329 0.655999 56.6249 0.655999C56.8275 0.655999 57.0142 0.650666 57.1849 0.639999ZM58.3049 7.392V7.712H53.5369L53.6969 7.392H58.3049ZM67.2403 0.672V0.992C66.8776 1.00267 66.6003 1.04533 66.4083 1.12C66.2269 1.184 66.1043 1.312 66.0403 1.504C65.9763 1.68533 65.9443 1.97333 65.9443 2.368V10.496C65.9443 10.8267 65.9656 11.072 66.0083 11.232C66.0616 11.392 66.1576 11.4987 66.2963 11.552C66.4456 11.6053 66.6643 11.632 66.9523 11.632H67.7363C68.0989 11.632 68.4403 11.5467 68.7603 11.376C69.0803 11.2053 69.3683 10.9653 69.6243 10.656C69.8803 10.336 70.0936 9.95733 70.2643 9.52C70.4349 9.08267 70.5629 8.59733 70.6483 8.064H71.0163C70.9843 8.42667 70.9683 8.896 70.9683 9.472C70.9683 9.71733 70.9736 10.0747 70.9843 10.544C70.9949 11.0133 71.0269 11.4987 71.0803 12C70.5363 11.9787 69.9229 11.968 69.2403 11.968C68.5576 11.9573 67.9496 11.952 67.4163 11.952C67.1496 11.952 66.8083 11.952 66.3923 11.952C65.9763 11.952 65.5283 11.9573 65.0483 11.968C64.5683 11.968 64.0829 11.9733 63.5923 11.984C63.1016 11.984 62.6376 11.9893 62.2003 12V11.68C62.5416 11.6587 62.7976 11.616 62.9683 11.552C63.1389 11.488 63.2509 11.36 63.3043 11.168C63.3683 10.976 63.4003 10.688 63.4003 10.304V2.368C63.4003 1.97333 63.3683 1.68533 63.3043 1.504C63.2509 1.312 63.1336 1.184 62.9523 1.12C62.7816 1.04533 62.5309 1.00267 62.2003 0.992V0.672C62.4669 0.682666 62.8243 0.693333 63.2723 0.704C63.7309 0.714666 64.2163 0.719999 64.7283 0.719999C65.1976 0.719999 65.6563 0.714666 66.1043 0.704C66.5629 0.693333 66.9416 0.682666 67.2403 0.672ZM75.9815 0.464C76.6108 0.464 77.0962 0.533333 77.4375 0.672C77.7788 0.8 78.0722 0.938666 78.3175 1.088C78.4455 1.16267 78.5468 1.22133 78.6215 1.264C78.7068 1.296 78.7868 1.312 78.8615 1.312C78.9682 1.312 79.0428 1.25333 79.0855 1.136C79.1388 1.01867 79.1815 0.842666 79.2135 0.608H79.5815C79.5708 0.810666 79.5548 1.056 79.5335 1.344C79.5228 1.62133 79.5122 1.98933 79.5015 2.448C79.5015 2.90667 79.5015 3.50933 79.5015 4.256H79.1335C79.0908 3.70133 78.9628 3.16267 78.7495 2.64C78.5362 2.11733 78.2322 1.69067 77.8375 1.36C77.4535 1.01867 76.9788 0.848 76.4135 0.848C75.9015 0.848 75.4802 0.992 75.1495 1.28C74.8188 1.568 74.6535 1.968 74.6535 2.48C74.6535 2.90667 74.7602 3.27467 74.9735 3.584C75.1868 3.88267 75.4962 4.176 75.9015 4.464C76.3175 4.752 76.8188 5.09867 77.4055 5.504C77.9175 5.83467 78.3762 6.16533 78.7815 6.496C79.1868 6.82667 79.5122 7.2 79.7575 7.616C80.0028 8.032 80.1255 8.528 80.1255 9.104C80.1255 9.808 79.9388 10.3893 79.5655 10.848C79.2028 11.3067 78.7228 11.6533 78.1255 11.888C77.5282 12.112 76.8722 12.224 76.1575 12.224C75.4962 12.224 74.9682 12.16 74.5735 12.032C74.1788 11.904 73.8482 11.7707 73.5815 11.632C73.3468 11.4827 73.1655 11.408 73.0375 11.408C72.9308 11.408 72.8508 11.4667 72.7975 11.584C72.7548 11.7013 72.7175 11.8773 72.6855 12.112H72.3175C72.3388 11.856 72.3495 11.5573 72.3495 11.216C72.3602 10.8747 72.3655 10.432 72.3655 9.888C72.3762 9.33333 72.3815 8.63467 72.3815 7.792H72.7495C72.7922 8.496 72.9095 9.15733 73.1015 9.776C73.3042 10.384 73.6082 10.8747 74.0135 11.248C74.4295 11.6213 74.9788 11.808 75.6615 11.808C76.0348 11.808 76.3655 11.744 76.6535 11.616C76.9522 11.4773 77.1922 11.2747 77.3735 11.008C77.5548 10.7413 77.6455 10.4107 77.6455 10.016C77.6455 9.568 77.5388 9.17867 77.3255 8.848C77.1228 8.51733 76.8402 8.208 76.4775 7.92C76.1255 7.632 75.7148 7.33867 75.2455 7.04C74.7442 6.70933 74.2748 6.37867 73.8375 6.048C73.4002 5.71733 73.0482 5.33867 72.7815 4.912C72.5255 4.48533 72.3975 3.97867 72.3975 3.392C72.3975 2.72 72.5628 2.17067 72.8935 1.744C73.2348 1.30667 73.6775 0.986666 74.2215 0.783999C74.7762 0.570666 75.3628 0.464 75.9815 0.464Z" fill="#FAF8EF"/>
</svg>
