<svg width="329" height="52" viewBox="0 0 329 52" fill="none" xmlns="http://www.w3.org/2000/svg">
<path d="M0.38 1.44C1.54667 1.48667 3.11 1.53333 5.07 1.58C7.07667 1.62666 9.06 1.65 11.02 1.65C13.26 1.65 15.43 1.62666 17.53 1.58C19.63 1.53333 21.1233 1.51 22.01 1.51C28.4967 1.51 33.35 2.79333 36.57 5.36C39.79 7.92667 41.4 11.24 41.4 15.3C41.4 16.98 41.0733 18.7533 40.42 20.62C39.7667 22.44 38.6467 24.1433 37.06 25.73C35.52 27.27 33.3967 28.53 30.69 29.51C27.9833 30.49 24.5767 30.98 20.47 30.98H13.33V29.58H19.77C22.5233 29.58 24.6 28.95 26 27.69C27.4467 26.43 28.4267 24.7733 28.94 22.72C29.5 20.6667 29.78 18.45 29.78 16.07C29.78 11.6367 29.1267 8.32333 27.82 6.13C26.5133 3.93666 24.2733 2.84 21.1 2.84C19.28 2.84 18.09 3.23667 17.53 4.03C17.0167 4.82333 16.76 6.43333 16.76 8.86V43.16C16.76 44.98 16.9467 46.3333 17.32 47.22C17.6933 48.1067 18.4167 48.69 19.49 48.97C20.5633 49.25 22.15 49.4133 24.25 49.46V51C22.8033 50.9533 20.9367 50.9067 18.65 50.86C16.3633 50.8133 13.96 50.79 11.44 50.79C9.43333 50.79 7.47333 50.8133 5.56 50.86C3.64667 50.9067 1.92 50.9533 0.38 51V49.6C1.87333 49.5067 2.99333 49.32 3.74 49.04C4.48667 48.76 4.97667 48.2 5.21 47.36C5.49 46.52 5.63 45.26 5.63 43.58V8.86C5.63 7.13333 5.49 5.87333 5.21 5.08C4.97667 4.24 4.46333 3.68 3.67 3.4C2.92333 3.07333 1.82667 2.88666 0.38 2.84V1.44ZM79.532 1.44C79.3453 3.49333 79.2053 5.47666 79.112 7.39C79.0653 9.30333 79.042 10.7733 79.042 11.8C79.042 12.7333 79.0653 13.62 79.112 14.46C79.1586 15.3 79.2053 16 79.252 16.56H77.642C77.1753 13.1533 76.452 10.47 75.472 8.51C74.492 6.50333 73.2086 5.10333 71.622 4.31C70.082 3.47 68.262 3.05 66.162 3.05H63.292C61.9386 3.05 60.912 3.16666 60.212 3.4C59.512 3.63333 59.0453 4.1 58.812 4.8C58.5786 5.5 58.462 6.57333 58.462 8.02V44.42C58.462 45.8667 58.5786 46.94 58.812 47.64C59.0453 48.34 59.512 48.8067 60.212 49.04C60.912 49.2733 61.9386 49.39 63.292 49.39H66.722C68.822 49.39 70.6653 48.9467 72.252 48.06C73.8853 47.1267 75.262 45.5633 76.382 43.37C77.5486 41.1767 78.4353 38.2133 79.042 34.48H80.652C80.512 35.9733 80.442 37.9333 80.442 40.36C80.442 41.4333 80.4653 42.95 80.512 44.91C80.5586 46.87 80.6986 48.9 80.932 51C78.552 50.9067 75.8686 50.86 72.882 50.86C69.8953 50.8133 67.2353 50.79 64.902 50.79C63.7353 50.79 62.242 50.79 60.422 50.79C58.602 50.79 56.642 50.8133 54.542 50.86C52.442 50.86 50.3186 50.8833 48.172 50.93C46.0253 50.93 43.9953 50.9533 42.082 51V49.6C43.5753 49.5067 44.6953 49.32 45.442 49.04C46.1886 48.76 46.6786 48.2 46.912 47.36C47.192 46.52 47.332 45.26 47.332 43.58V8.86C47.332 7.13333 47.192 5.87333 46.912 5.08C46.6786 4.24 46.1653 3.68 45.372 3.4C44.6253 3.07333 43.5286 2.88666 42.082 2.84V1.44C43.9953 1.48667 46.0253 1.53333 48.172 1.58C50.3186 1.58 52.442 1.60333 54.542 1.65C56.642 1.65 58.602 1.65 60.422 1.65C62.242 1.65 63.7353 1.65 64.902 1.65C67.0486 1.65 69.4753 1.65 72.182 1.65C74.9353 1.60333 77.3853 1.53333 79.532 1.44ZM68.612 25.38C68.612 25.38 68.612 25.6133 68.612 26.08C68.612 26.5467 68.612 26.78 68.612 26.78H56.362C56.362 26.78 56.362 26.5467 56.362 26.08C56.362 25.6133 56.362 25.38 56.362 25.38H68.612ZM70.642 16.14C70.4553 18.8 70.362 20.83 70.362 22.23C70.4086 23.63 70.432 24.9133 70.432 26.08C70.432 27.2467 70.4553 28.53 70.502 29.93C70.5486 31.33 70.6653 33.36 70.852 36.02H69.242C69.0086 34.3867 68.5653 32.87 67.912 31.47C67.3053 30.07 66.4186 28.95 65.252 28.11C64.0853 27.2233 62.5686 26.78 60.702 26.78V25.38C62.102 25.38 63.292 25.1 64.272 24.54C65.252 23.9333 66.0453 23.1633 66.652 22.23C67.3053 21.25 67.8186 20.2233 68.192 19.15C68.5653 18.0767 68.8453 17.0733 69.032 16.14H70.642ZM101.147 0.529999C103.901 0.529999 106.024 0.833332 107.517 1.44C109.011 2 110.294 2.60666 111.367 3.26C111.927 3.58667 112.371 3.84333 112.697 4.03C113.071 4.17 113.421 4.24 113.747 4.24C114.214 4.24 114.541 3.98333 114.727 3.47C114.961 2.95666 115.147 2.18666 115.287 1.16H116.897C116.851 2.04667 116.781 3.12 116.687 4.38C116.641 5.59333 116.594 7.20333 116.547 9.21C116.547 11.2167 116.547 13.8533 116.547 17.12H114.937C114.751 14.6933 114.191 12.3367 113.257 10.05C112.324 7.76333 110.994 5.89667 109.267 4.45C107.587 2.95666 105.511 2.21 103.037 2.21C100.797 2.21 98.9539 2.84 97.5072 4.1C96.0605 5.36 95.3372 7.11 95.3372 9.35C95.3372 11.2167 95.8039 12.8267 96.7372 14.18C97.6705 15.4867 99.0239 16.77 100.797 18.03C102.617 19.29 104.811 20.8067 107.377 22.58C109.617 24.0267 111.624 25.4733 113.397 26.92C115.171 28.3667 116.594 30 117.667 31.82C118.741 33.64 119.277 35.81 119.277 38.33C119.277 41.41 118.461 43.9533 116.827 45.96C115.241 47.9667 113.141 49.4833 110.527 50.51C107.914 51.49 105.044 51.98 101.917 51.98C99.0239 51.98 96.7139 51.7 94.9872 51.14C93.2605 50.58 91.8139 49.9967 90.6472 49.39C89.6205 48.7367 88.8272 48.41 88.2672 48.41C87.8005 48.41 87.4505 48.6667 87.2172 49.18C87.0305 49.6933 86.8672 50.4633 86.7272 51.49H85.1172C85.2105 50.37 85.2572 49.0633 85.2572 47.57C85.3039 46.0767 85.3272 44.14 85.3272 41.76C85.3739 39.3333 85.3972 36.2767 85.3972 32.59H87.0072C87.1939 35.67 87.7072 38.5633 88.5472 41.27C89.4339 43.93 90.7639 46.0767 92.5372 47.71C94.3572 49.3433 96.7605 50.16 99.7472 50.16C101.381 50.16 102.827 49.88 104.087 49.32C105.394 48.7133 106.444 47.8267 107.237 46.66C108.031 45.4933 108.427 44.0467 108.427 42.32C108.427 40.36 107.961 38.6567 107.027 37.21C106.141 35.7633 104.904 34.41 103.317 33.15C101.777 31.89 99.9805 30.6067 97.9272 29.3C95.7339 27.8533 93.6805 26.4067 91.7672 24.96C89.8539 23.5133 88.3139 21.8567 87.1472 19.99C86.0272 18.1233 85.4672 15.9067 85.4672 13.34C85.4672 10.4 86.1905 7.99667 87.6372 6.13C89.1305 4.21666 91.0672 2.81666 93.4472 1.93C95.8739 0.996665 98.4405 0.529999 101.147 0.529999ZM139.226 0.529999C141.979 0.529999 144.103 0.833332 145.596 1.44C147.089 2 148.373 2.60666 149.446 3.26C150.006 3.58667 150.449 3.84333 150.776 4.03C151.149 4.17 151.499 4.24 151.826 4.24C152.293 4.24 152.619 3.98333 152.806 3.47C153.039 2.95666 153.226 2.18666 153.366 1.16H154.976C154.929 2.04667 154.859 3.12 154.766 4.38C154.719 5.59333 154.673 7.20333 154.626 9.21C154.626 11.2167 154.626 13.8533 154.626 17.12H153.016C152.829 14.6933 152.269 12.3367 151.336 10.05C150.403 7.76333 149.073 5.89667 147.346 4.45C145.666 2.95666 143.589 2.21 141.116 2.21C138.876 2.21 137.033 2.84 135.586 4.1C134.139 5.36 133.416 7.11 133.416 9.35C133.416 11.2167 133.883 12.8267 134.816 14.18C135.749 15.4867 137.103 16.77 138.876 18.03C140.696 19.29 142.889 20.8067 145.456 22.58C147.696 24.0267 149.703 25.4733 151.476 26.92C153.249 28.3667 154.673 30 155.746 31.82C156.819 33.64 157.356 35.81 157.356 38.33C157.356 41.41 156.539 43.9533 154.906 45.96C153.319 47.9667 151.219 49.4833 148.606 50.51C145.993 51.49 143.123 51.98 139.996 51.98C137.103 51.98 134.793 51.7 133.066 51.14C131.339 50.58 129.893 49.9967 128.726 49.39C127.699 48.7367 126.906 48.41 126.346 48.41C125.879 48.41 125.529 48.6667 125.296 49.18C125.109 49.6933 124.946 50.4633 124.806 51.49H123.196C123.289 50.37 123.336 49.0633 123.336 47.57C123.383 46.0767 123.406 44.14 123.406 41.76C123.453 39.3333 123.476 36.2767 123.476 32.59H125.086C125.273 35.67 125.786 38.5633 126.626 41.27C127.513 43.93 128.843 46.0767 130.616 47.71C132.436 49.3433 134.839 50.16 137.826 50.16C139.459 50.16 140.906 49.88 142.166 49.32C143.473 48.7133 144.523 47.8267 145.316 46.66C146.109 45.4933 146.506 44.0467 146.506 42.32C146.506 40.36 146.039 38.6567 145.106 37.21C144.219 35.7633 142.983 34.41 141.396 33.15C139.856 31.89 138.059 30.6067 136.006 29.3C133.813 27.8533 131.759 26.4067 129.846 24.96C127.933 23.5133 126.393 21.8567 125.226 19.99C124.106 18.1233 123.546 15.9067 123.546 13.34C123.546 10.4 124.269 7.99667 125.716 6.13C127.209 4.21666 129.146 2.81666 131.526 1.93C133.953 0.996665 136.519 0.529999 139.226 0.529999ZM185.215 0.459996C190.162 0.459996 194.478 1.46333 198.165 3.47C201.898 5.47666 204.792 8.37 206.845 12.15C208.898 15.8833 209.925 20.4333 209.925 25.8C209.925 31.0267 208.875 35.6 206.775 39.52C204.675 43.44 201.735 46.4967 197.955 48.69C194.222 50.8833 189.952 51.98 185.145 51.98C180.198 51.98 175.858 50.9767 172.125 48.97C168.438 46.9633 165.568 44.07 163.515 40.29C161.462 36.51 160.435 31.96 160.435 26.64C160.435 21.4133 161.485 16.84 163.585 12.92C165.732 9 168.648 5.94333 172.335 3.75C176.068 1.55666 180.362 0.459996 185.215 0.459996ZM184.935 1.72C182.322 1.72 180.035 2.77 178.075 4.87C176.162 6.97 174.668 9.86333 173.595 13.55C172.568 17.2367 172.055 21.5067 172.055 26.36C172.055 31.3067 172.638 35.6233 173.805 39.31C175.018 42.95 176.628 45.7733 178.635 47.78C180.688 49.74 182.952 50.72 185.425 50.72C188.038 50.72 190.302 49.67 192.215 47.57C194.175 45.47 195.668 42.5767 196.695 38.89C197.768 35.1567 198.305 30.8867 198.305 26.08C198.305 21.0867 197.698 16.77 196.485 13.13C195.318 9.49 193.708 6.69 191.655 4.73C189.648 2.72333 187.408 1.72 184.935 1.72ZM234.184 1.3L251.194 45.12C251.847 46.8 252.57 47.9667 253.364 48.62C254.204 49.2267 254.95 49.5533 255.604 49.6V51C254.204 50.9067 252.547 50.86 250.634 50.86C248.767 50.8133 246.877 50.79 244.964 50.79C242.817 50.79 240.787 50.8133 238.874 50.86C236.96 50.86 235.444 50.9067 234.324 51V49.6C236.704 49.5067 238.197 49.11 238.804 48.41C239.457 47.6633 239.317 46.1 238.384 43.72L226.484 11.17L227.744 9.35L217.104 37.07C216.077 39.6367 215.447 41.7367 215.214 43.37C215.027 45.0033 215.144 46.2633 215.564 47.15C216.03 48.0367 216.754 48.6667 217.734 49.04C218.76 49.3667 219.974 49.5533 221.374 49.6V51C219.834 50.9067 218.364 50.86 216.964 50.86C215.564 50.8133 214.14 50.79 212.694 50.79C211.667 50.79 210.687 50.8133 209.754 50.86C208.867 50.86 208.074 50.9067 207.374 51V49.6C208.354 49.4133 209.357 48.7833 210.384 47.71C211.41 46.6367 212.414 44.8167 213.394 42.25L229.354 1.3C230.1 1.34666 230.894 1.37 231.734 1.37C232.62 1.37 233.437 1.34666 234.184 1.3ZM239.084 30.84V32.24H218.224L218.924 30.84H239.084ZM275.376 1.44V2.84C273.789 2.88666 272.576 3.07333 271.736 3.4C270.943 3.68 270.406 4.24 270.126 5.08C269.846 5.87333 269.706 7.13333 269.706 8.86V44.42C269.706 45.8667 269.799 46.94 269.986 47.64C270.219 48.34 270.639 48.8067 271.246 49.04C271.899 49.2733 272.856 49.39 274.116 49.39H277.546C279.133 49.39 280.626 49.0167 282.026 48.27C283.426 47.5233 284.686 46.4733 285.806 45.12C286.926 43.72 287.859 42.0633 288.606 40.15C289.353 38.2367 289.913 36.1133 290.286 33.78H291.896C291.756 35.3667 291.686 37.42 291.686 39.94C291.686 41.0133 291.709 42.5767 291.756 44.63C291.803 46.6833 291.943 48.8067 292.176 51C289.796 50.9067 287.113 50.86 284.126 50.86C281.139 50.8133 278.479 50.79 276.146 50.79C274.979 50.79 273.486 50.79 271.666 50.79C269.846 50.79 267.886 50.8133 265.786 50.86C263.686 50.86 261.563 50.8833 259.416 50.93C257.269 50.93 255.239 50.9533 253.326 51V49.6C254.819 49.5067 255.939 49.32 256.686 49.04C257.433 48.76 257.923 48.2 258.156 47.36C258.436 46.52 258.576 45.26 258.576 43.58V8.86C258.576 7.13333 258.436 5.87333 258.156 5.08C257.923 4.24 257.409 3.68 256.616 3.4C255.869 3.07333 254.773 2.88666 253.326 2.84V1.44C254.493 1.48667 256.056 1.53333 258.016 1.58C260.023 1.62666 262.146 1.65 264.386 1.65C266.439 1.65 268.446 1.62666 270.406 1.58C272.413 1.53333 274.069 1.48667 275.376 1.44ZM310.819 0.529999C313.572 0.529999 315.696 0.833332 317.189 1.44C318.682 2 319.966 2.60666 321.039 3.26C321.599 3.58667 322.042 3.84333 322.369 4.03C322.742 4.17 323.092 4.24 323.419 4.24C323.886 4.24 324.212 3.98333 324.399 3.47C324.632 2.95666 324.819 2.18666 324.959 1.16H326.569C326.522 2.04667 326.452 3.12 326.359 4.38C326.312 5.59333 326.266 7.20333 326.219 9.21C326.219 11.2167 326.219 13.8533 326.219 17.12H324.609C324.422 14.6933 323.862 12.3367 322.929 10.05C321.996 7.76333 320.666 5.89667 318.939 4.45C317.259 2.95666 315.182 2.21 312.709 2.21C310.469 2.21 308.626 2.84 307.179 4.1C305.732 5.36 305.009 7.11 305.009 9.35C305.009 11.2167 305.476 12.8267 306.409 14.18C307.342 15.4867 308.696 16.77 310.469 18.03C312.289 19.29 314.482 20.8067 317.049 22.58C319.289 24.0267 321.296 25.4733 323.069 26.92C324.842 28.3667 326.266 30 327.339 31.82C328.412 33.64 328.949 35.81 328.949 38.33C328.949 41.41 328.132 43.9533 326.499 45.96C324.912 47.9667 322.812 49.4833 320.199 50.51C317.586 51.49 314.716 51.98 311.589 51.98C308.696 51.98 306.386 51.7 304.659 51.14C302.932 50.58 301.486 49.9967 300.319 49.39C299.292 48.7367 298.499 48.41 297.939 48.41C297.472 48.41 297.122 48.6667 296.889 49.18C296.702 49.6933 296.539 50.4633 296.399 51.49H294.789C294.882 50.37 294.929 49.0633 294.929 47.57C294.976 46.0767 294.999 44.14 294.999 41.76C295.046 39.3333 295.069 36.2767 295.069 32.59H296.679C296.866 35.67 297.379 38.5633 298.219 41.27C299.106 43.93 300.436 46.0767 302.209 47.71C304.029 49.3433 306.432 50.16 309.419 50.16C311.052 50.16 312.499 49.88 313.759 49.32C315.066 48.7133 316.116 47.8267 316.909 46.66C317.702 45.4933 318.099 44.0467 318.099 42.32C318.099 40.36 317.632 38.6567 316.699 37.21C315.812 35.7633 314.576 34.41 312.989 33.15C311.449 31.89 309.652 30.6067 307.599 29.3C305.406 27.8533 303.352 26.4067 301.439 24.96C299.526 23.5133 297.986 21.8567 296.819 19.99C295.699 18.1233 295.139 15.9067 295.139 13.34C295.139 10.4 295.862 7.99667 297.309 6.13C298.802 4.21666 300.739 2.81666 303.119 1.93C305.546 0.996665 308.112 0.529999 310.819 0.529999Z" fill="#1C1A15"/>
</svg>
